<svg xmlns:xlink="http://www.w3.org/1999/xlink" xmlns="http://www.w3.org/2000/svg" height="1024" version="1.1" viewBox="0 0 36 36" width="1024"><defs><path class="ytp-svg-fill" d="m 20.20,14.19 0,-4.45 7.79,7.79 -7.79,7.79 0,-4.56 C 16.27,20.69 12.10,21.81 9.34,24.76 8.80,25.13 7.60,27.29 8.12,25.65 9.08,21.32 11.80,17.18 15.98,15.38 c 1.33,-0.60 2.76,-0.98 4.21,-1.19 z" id="ytp-id-31" fill="#FFFFFF"></path></defs><use class="ytp-svg-shadow" xlink:href="#ytp-id-31" stroke="#000000" fill="none" stroke-width="2px" stroke-opacity="0.15"></use><path class="ytp-svg-fill" d="m 20.20,14.19 0,-4.45 7.79,7.79 -7.79,7.79 0,-4.56 C 16.27,20.69 12.10,21.81 9.34,24.76 8.80,25.13 7.60,27.29 8.12,25.65 9.08,21.32 11.80,17.18 15.98,15.38 c 1.33,-0.60 2.76,-0.98 4.21,-1.19 z" id="ytp-id-31" fill="#FFFFFF"></path></svg>