<svg xmlns:xlink="http://www.w3.org/1999/xlink" xmlns="http://www.w3.org/2000/svg" height="1024" version="1.1" viewBox="0 0 36 36" width="1024"><defs><path class="ytp-svg-fill" d="M21.9,8.3H11.3c-0.9,0-1.7,.8-1.7,1.7v12.3h1.7V10h10.6V8.3z M24.6,11.8h-9.7c-1,0-1.8,.8-1.8,1.8v12.3  c0,1,.8,1.8,1.8,1.8h9.7c1,0,1.8-0.8,1.8-1.8V13.5C26.3,12.6,25.5,11.8,24.6,11.8z M24.6,25.9h-9.7V13.5h9.7V25.9z" id="ytp-id-32" fill="#FFFFFF"></path></defs><use class="ytp-svg-shadow" xlink:href="#ytp-id-32" stroke="#000000" fill="none" stroke-width="2px" stroke-opacity="0.15"></use><path class="ytp-svg-fill" d="M21.9,8.3H11.3c-0.9,0-1.7,.8-1.7,1.7v12.3h1.7V10h10.6V8.3z M24.6,11.8h-9.7c-1,0-1.8,.8-1.8,1.8v12.3  c0,1,.8,1.8,1.8,1.8h9.7c1,0,1.8-0.8,1.8-1.8V13.5C26.3,12.6,25.5,11.8,24.6,11.8z M24.6,25.9h-9.7V13.5h9.7V25.9z" id="ytp-id-32" fill="#FFFFFF"></path></svg>