<svg xmlns:xlink="http://www.w3.org/1999/xlink" xmlns="http://www.w3.org/2000/svg" height="1024" version="1.1" viewBox="0 0 36 36" width="1024"><defs><path d="m 22.53,21.42 0,6.85 5.66,-3.42 -5.66,-3.42 0,0 z m -11.33,0 9.06,0 0,2.28 -9.06,0 0,-2.28 0,0 z m 0,-9.14 13.6,0 0,2.28 -13.6,0 0,-2.28 0,0 z m 0,4.57 13.6,0 0,2.28 -13.6,0 0,-2.28 0,0 z" fill="#FFFFFF" id="ytp-id-24"></path></defs><use class="ytp-svg-shadow" xlink:href="#ytp-id-24" stroke="#000000" fill="none" stroke-width="2px" stroke-opacity="0.15"></use><path d="m 22.53,21.42 0,6.85 5.66,-3.42 -5.66,-3.42 0,0 z m -11.33,0 9.06,0 0,2.28 -9.06,0 0,-2.28 0,0 z m 0,-9.14 13.6,0 0,2.28 -13.6,0 0,-2.28 0,0 z m 0,4.57 13.6,0 0,2.28 -13.6,0 0,-2.28 0,0 z" fill="#FFFFFF" id="ytp-id-24"></path></svg>