<svg xmlns:xlink="http://www.w3.org/1999/xlink" xmlns="http://www.w3.org/2000/svg" height="1024" version="1.1" viewBox="0 0 36 36" width="1024"><defs><path class="ytp-svg-fill" d="M18,8 C12.47,8 8,12.47 8,18 C8,23.52 12.47,28 18,28 C23.52,28 28,23.52 28,18 C28,12.47 23.52,8 18,8 L18,8 Z M17,16 L19,16 L19,24 L17,24 L17,16 Z M17,12 L19,12 L19,14 L17,14 L17,12 Z" id="ytp-id-2" fill="#FFFFFF"></path></defs><use class="ytp-svg-shadow" xlink:href="#ytp-id-2" stroke="#000000" fill="none" stroke-width="2px" stroke-opacity="0.15"></use><path class="ytp-svg-fill" d="M18,8 C12.47,8 8,12.47 8,18 C8,23.52 12.47,28 18,28 C23.52,28 28,23.52 28,18 C28,12.47 23.52,8 18,8 L18,8 Z M17,16 L19,16 L19,24 L17,24 L17,16 Z M17,12 L19,12 L19,14 L17,14 L17,12 Z" id="ytp-id-2" fill="#FFFFFF"></path></svg>