<svg xmlns:xlink="http://www.w3.org/1999/xlink" xmlns="http://www.w3.org/2000/svg" height="1024" version="1.1" viewBox="0 0 36 36" width="1024"><defs><path class="ytp-svg-fill" d="M18,8 C12.47,8 8,12.47 8,18 C8,23.52 12.47,28 18,28 C23.52,28 28,23.52 28,18 C28,12.47 23.52,8 18,8 L18,8 Z M16,19.02 L16,12.00 L18,12.00 L18,17.86 L23.10,20.81 L22.10,22.54 L16,19.02 Z" id="ytp-id-25" fill="#FFFFFF"></path></defs><use class="ytp-svg-shadow" xlink:href="#ytp-id-25" stroke="#000000" fill="none" stroke-width="2px" stroke-opacity="0.15"></use><path class="ytp-svg-fill" d="M18,8 C12.47,8 8,12.47 8,18 C8,23.52 12.47,28 18,28 C23.52,28 28,23.52 28,18 C28,12.47 23.52,8 18,8 L18,8 Z M16,19.02 L16,12.00 L18,12.00 L18,17.86 L23.10,20.81 L22.10,22.54 L16,19.02 Z" id="ytp-id-25" fill="#FFFFFF"></path></svg>