<svg xmlns:xlink="http://www.w3.org/1999/xlink" xmlns="http://www.w3.org/2000/svg" viewBox="0 0 24 24" preserveAspectRatio="xMidYMid meet" focusable="false" class="style-scope yt-icon" style="pointer-events: none; display: block; width: 100%; height: 100%;" width="1024"  height="1024" ><g class="style-scope yt-icon" fill="#030303"><path d="M12,16.5c0.83,0,1.5,0.67,1.5,1.5s-0.67,1.5-1.5,1.5s-1.5-0.67-1.5-1.5S11.17,16.5,12,16.5z M10.5,12 c0,0.83,0.67,1.5,1.5,1.5s1.5-0.67,1.5-1.5s-0.67-1.5-1.5-1.5S10.5,11.17,10.5,12z M10.5,6c0,0.83,0.67,1.5,1.5,1.5 s1.5-0.67,1.5-1.5S12.83,4.5,12,4.5S10.5,5.17,10.5,6z" class="style-scope yt-icon" fill="#030303"></path></g></svg>