<svg xmlns:xlink="http://www.w3.org/1999/xlink" xmlns="http://www.w3.org/2000/svg" viewBox="0 0 24 24" preserveAspectRatio="xMidYMid meet" focusable="false" class="style-scope yt-icon" style="pointer-events: none; display: block; width: 100%; height: 100%;" width="1024"  height="1024" ><g class="style-scope yt-icon" fill="#030303"><path d="M10,20c0,1.1-0.9,2-2,2s-2-0.9-2-2c0-1.1,0.9-2,2-2S10,18.9,10,20z M16,18c-1.1,0-2,0.9-2,2c0,1.1,0.9,2,2,2s2-0.9,2-2 C18,18.9,17.1,18,16,18z M7.81,14L7.1,16H18v1H6l0.03-0.97l0.8-2.25L5,5V3H3V2h2h1v1v2h14l-1.88,9H7.81z M6.23,6l1.46,7h9.62l1.46-7 H6.23z" class="style-scope yt-icon" fill="#030303"></path></g></svg>